<svg width="541" height="314" viewBox="0 0 541 314" fill="none" xmlns="http://www.w3.org/2000/svg">
<path d="M473.354 0C482.58 0 490.06 7.48198 490.06 16.7104C490.061 16.8306 490.06 16.8853 490.06 17.0832L490.061 20.7276C490.061 20.7619 490.061 20.7969 490.061 20.8327L490.061 24.1342C490.061 26.7572 490.062 29.5987 490.062 32.6425L490.062 35.586C490.063 49.4191 490.064 64.3385 490.065 79.8747L490.066 84.4961C490.067 107.446 490.069 129.79 490.069 150.846L490.07 155.73C490.073 234.858 490.07 282.87 490.059 284.923C490.041 288.278 489.413 291.21 488.193 293.182L537.947 293.182C539.576 293.182 540.899 294.501 540.899 296.127V302.627C540.899 304.045 539.927 305.547 538.634 306.132L532.895 308.729C528.254 310.83 520.461 312.726 515.374 312.994L502.732 313.659L502.663 313.661H39.2449C35.9294 313.661 32.6299 313.558 29.4972 313.388C28.4003 313.328 27.4023 313.264 26.5219 313.2C26.213 313.177 25.9408 313.156 25.7074 313.138C25.5663 313.126 25.4689 313.118 25.4449 313.116C20.3655 312.778 12.5913 310.794 7.96898 308.655L2.24946 306.008C0.964099 305.414 0 303.909 0 302.495V296.127C0 294.499 1.32253 293.182 2.95153 293.182L52.5222 293.182C52.2692 292.659 52.0505 292.067 51.8628 291.418C51.3231 289.55 51.0499 287.167 51.0499 285.019V16.7117C51.0499 7.48234 58.5294 0 67.7554 0H473.354ZM537.854 303.519L3.17634 303.519C3.23346 303.565 3.29193 303.603 3.35012 303.63L9.06964 306.276C13.4002 308.28 20.8602 310.184 25.6461 310.503C25.6915 310.507 25.7828 310.514 25.9178 310.525C26.1445 310.543 26.4101 310.564 26.7121 310.586C27.5771 310.649 28.5593 310.712 29.6397 310.771C32.7277 310.939 35.9806 311.04 39.2449 311.04L502.632 311.039L515.236 310.377C519.92 310.13 527.227 308.366 531.598 306.438L531.814 306.342L537.554 303.745C537.656 303.698 537.759 303.619 537.854 303.519ZM233.343 295.803L2.95153 295.803C2.76784 295.803 2.62095 295.949 2.62095 296.127V302.495C2.62095 302.607 2.65137 302.735 2.70325 302.863L538.241 302.864C538.265 302.781 538.278 302.701 538.278 302.627V296.127C538.278 295.95 538.13 295.803 537.947 295.803L308.123 295.803L307.72 297.41C307.338 298.929 305.761 300.161 304.194 300.161H237.272C235.706 300.161 234.128 298.931 233.746 297.41L233.343 295.803ZM306.772 295.803H234.694L235.017 297.091C235.253 298.029 236.307 298.851 237.272 298.851H304.194C305.16 298.851 306.213 298.028 306.449 297.091L306.772 295.803ZM473.354 2.62095H67.7554C59.9771 2.62095 53.6708 8.92964 53.6708 16.7117V285.019C53.6708 289.304 54.7916 293.182 56.0267 293.182L97.7939 293.182L97.7942 292.383C97.7942 291.469 98.528 290.728 99.4301 290.728H441.469C442.372 290.728 443.105 291.47 443.105 292.383L443.104 293.182L483.922 293.182C485.887 293.182 487.38 289.844 487.437 285.063L487.438 284.909C487.449 282.864 487.452 234.798 487.449 155.726L487.448 149.529C487.448 128.419 487.446 106.035 487.445 83.0612L487.444 79.8749C487.443 64.3387 487.442 49.4193 487.441 35.5862C487.441 31.4154 487.44 27.5857 487.44 24.1345L487.44 20.833C487.44 20.7971 487.44 20.7621 487.44 20.7278L487.44 17.0834C487.44 17.0724 487.44 17.0619 487.44 17.0517V16.7106C487.439 8.92943 481.132 2.62095 473.354 2.62095ZM472.908 4.23049C479.965 4.23049 485.686 9.95064 485.686 17.0057V280.413C485.686 284.214 482.608 287.293 478.806 287.293H62.0756C58.2756 287.293 55.195 284.213 55.195 280.413V17.0057C55.195 9.94932 60.9146 4.23049 67.9735 4.23049H472.908ZM472.908 4.88573H67.9735C61.2765 4.88573 55.8502 10.3112 55.8502 17.0057V280.413C55.8502 283.851 58.6374 286.638 62.0756 286.638H478.806C482.246 286.638 485.031 283.852 485.031 280.413V17.0057C485.031 10.3125 479.603 4.88573 472.908 4.88573ZM471.608 21.2195C473.054 21.2195 474.228 22.3948 474.228 23.8372V275.455C474.228 276.902 473.056 278.073 471.608 278.073H69.2905C67.8449 278.073 66.6704 276.898 66.6704 275.455V23.8372C66.6704 22.3906 67.8424 21.2195 69.2905 21.2195H471.608ZM471.608 22.53H69.2905C68.5872 22.53 68.0165 23.0803 67.9825 23.772L67.9809 23.8372V275.455C67.9809 276.172 68.5673 276.762 69.2905 276.762H471.608C472.334 276.762 472.918 276.177 472.918 275.455V23.8372C472.918 23.12 472.332 22.53 471.608 22.53ZM270.554 10.3387C271.836 10.3387 272.875 11.3775 272.875 12.659C272.875 13.9143 271.878 14.9368 270.632 14.978L270.554 14.9793C269.272 14.9793 268.232 13.9405 268.232 12.659C268.232 11.3775 269.272 10.3387 270.554 10.3387ZM270.554 10.9939C269.634 10.9939 268.888 11.7395 268.888 12.659C268.888 13.5549 269.596 14.2857 270.483 14.3226L270.554 14.3241C271.474 14.3241 272.22 13.5785 272.22 12.659C272.22 11.7395 271.474 10.9939 270.554 10.9939Z" fill="#030303"/>
</svg>
